<svg xmlns="http://www.w3.org/2000/svg" xmlns:xlink="http://www.w3.org/1999/xlink" width="500" zoomAndPan="magnify" viewBox="0 0 375 374.999991" height="500" preserveAspectRatio="xMidYMid meet" version="1.0"><defs><clipPath id="8bf7e3f420"><path d="M 63 125 L 312.734375 125 L 312.734375 375 L 63 375 Z M 63 125 " clip-rule="nonzero"/></clipPath><clipPath id="674bb235f9"><path d="M 62.386719 0 L 312 0 L 312 251 L 62.386719 251 Z M 62.386719 0 " clip-rule="nonzero"/></clipPath></defs><g clip-path="url(#8bf7e3f420)"><path fill="#f652a0" d="M 187.527344 250.019531 L 75.714844 250.019531 C 68.296875 250.019531 62.464844 256.4375 63.28125 263.808594 C 66.285156 291.058594 78.242188 317.515625 99.136719 338.410156 C 123.550781 362.820312 155.539062 375.023438 187.527344 375.023438 C 219.515625 375.023438 251.515625 362.820312 275.917969 338.410156 C 300.324219 313.996094 312.53125 282.007812 312.53125 250.019531 C 312.53125 218.03125 300.332031 186.03125 275.917969 161.628906 C 251.503906 137.222656 219.515625 125.011719 187.527344 125.011719 Z M 187.527344 250.019531 " fill-opacity="1" fill-rule="nonzero"/></g><g clip-path="url(#674bb235f9)"><path fill="#4335b2" d="M 187.527344 125.003906 L 299.339844 125.003906 C 306.757812 125.003906 312.589844 118.585938 311.773438 111.214844 C 308.769531 83.964844 296.8125 57.511719 275.917969 36.613281 C 251.515625 12.203125 219.523438 0 187.527344 0 C 155.539062 0 123.542969 12.203125 99.136719 36.613281 C 74.722656 61.019531 62.523438 93.015625 62.523438 125.003906 C 62.523438 156.996094 74.722656 188.992188 99.136719 213.394531 C 123.550781 237.808594 155.539062 250.011719 187.527344 250.011719 Z M 187.527344 125.003906 " fill-opacity="1" fill-rule="nonzero"/></g></svg>